<?xml version="1.0" encoding="UTF-8" standalone="no"?>
<!DOCTYPE svg PUBLIC "-//W3C//DTD SVG 1.1//EN" "http://www.w3.org/Graphics/SVG/1.1/DTD/svg11.dtd">
<svg version="1.1" xmlns="http://www.w3.org/2000/svg" xmlns:xlink="http://www.w3.org/1999/xlink" preserveAspectRatio="xMidYMid meet" viewBox="0 0 640 640" width="640" height="640"><defs><path d="M478.98 307.11C479.81 306.96 480.64 306.79 481.47 306.63C448.01 285.87 437.73 241.91 458.49 208.45C473 185.08 499.66 172.13 527 175.19C526.24 177 522.44 186.03 515.61 202.28C531.8 188.15 540.79 180.3 542.59 178.73C542.65 178.75 542.71 178.77 542.77 178.79C579.92 191.87 599.42 232.59 586.34 269.74C586.34 269.74 586.34 269.74 586.34 269.74C585.89 271.03 585.35 272.25 584.84 273.49C592.45 269.67 599.76 265.21 605.71 259.51C617.77 247.95 624.38 232.01 631.76 212.36C646.39 173.42 660.48 133.93 674 94.34C643.19 77.67 629.06 41.08 640.68 8.03C641.4 5.97 642.24 3.99 643.13 2.04C643.35 1.55 643.58 1.07 643.81 0.59C644.71 -1.28 645.67 -3.11 646.72 -4.86C646.89 -5.15 647.08 -5.42 647.25 -5.7C648.62 -7.92 649.85 -9.58 650.14 -10.01C650.52 -10.53 650.89 -11.06 651.28 -11.57C652.43 -13.06 653.61 -14.52 654.87 -15.92C655.28 -16.38 655.73 -16.82 656.16 -17.27C657.6 -18.79 658.83 -19.93 659.12 -20.22C659.66 -20.72 660.19 -21.23 660.73 -21.71C660.88 -21.84 661.01 -21.97 661.15 -22.1C661.16 -22.09 661.16 -22.08 661.17 -22.07C687.09 -44.66 725.43 -45.52 752.34 -24.12C751.35 -21.77 746.41 -10.02 737.52 11.14C753.52 -2.83 762.41 -10.58 764.19 -12.14C783.35 12.27 784.41 46.29 766.83 71.85C766.85 71.85 766.88 71.86 766.9 71.87C766.61 72.3 766.28 72.69 765.98 73.11C765.14 74.29 764.43 75.2 764.25 75.43C763.5 76.41 762.71 77.35 761.91 78.28C761.3 78.98 760.7 79.69 760.07 80.37C759.15 81.35 758.18 82.29 757.21 83.22C756.64 83.76 756.09 84.33 755.51 84.85C753.21 86.91 751.23 88.36 750.75 88.75C750.18 89.18 749.57 89.56 748.98 89.98C747.83 90.78 746.68 91.58 745.48 92.32C744.74 92.78 743.98 93.2 743.22 93.63C742.13 94.25 741.02 94.86 739.9 95.42C739.1 95.82 738.3 96.2 737.48 96.57C736.33 97.1 735.16 97.59 733.97 98.05C733.18 98.36 732.39 98.68 731.58 98.96C730.25 99.43 728.91 99.84 727.55 100.23C726.87 100.42 726.19 100.65 725.5 100.82C723.47 101.34 721.41 101.79 719.33 102.12C718.94 102.19 718.54 102.21 718.15 102.27C716.43 102.52 714.69 102.72 712.95 102.85C712.2 102.9 711.44 102.91 710.69 102.94C709.27 102.99 707.86 103.02 706.44 102.99C705.61 102.97 704.78 102.93 703.95 102.88C701.87 102.76 700.21 102.56 699.79 102.52C698.97 102.42 698.16 102.33 697.34 102.21C695.85 101.98 694.37 101.69 692.88 101.36C692.79 101.34 692.69 101.33 692.59 101.31C684.03 126.36 676.89 146.3 675.15 151.3C704.41 124.99 749.47 127.38 775.78 156.64C776.71 157.67 777.61 158.73 778.48 159.82C776.83 161.63 768.62 170.72 753.82 187.08C773.85 179.09 784.98 174.64 787.2 173.76C795.31 190.76 796.34 210.28 790.06 228.04C787.88 234.28 784.83 240.18 781 245.56C758.27 277.71 713.79 285.34 681.65 262.62C665.58 251.26 654.93 233.77 652.2 214.29C651.58 215.97 650.97 217.66 650.34 219.34C643.83 236.67 635.72 258.24 619.44 273.84C608.4 284.41 594.83 291.12 581.8 296.79C569.07 302.32 558.59 306 556.01 307.02C546.33 312.89 535.39 316.38 524.1 317.19C510.36 321.01 496.45 324.2 482.4 326.66C481.52 326.81 474.52 328.02 473.64 328.17C465.77 329.52 457.7 330.9 449.69 332.5C450.85 332.85 452 333.17 453.15 333.58C482.43 343.88 501.69 371.94 500.77 402.97C497.11 404.1 478.81 409.71 445.87 419.82C475.67 424.56 492.23 427.19 495.55 427.71C480.7 464.21 439.07 481.75 402.58 466.9C392.7 462.88 383.85 456.7 376.67 448.81C377.43 451.34 378.04 453.36 378.19 453.87C379.2 457.22 380.2 460.54 381.16 463.84C394.24 508.76 388.61 544.09 365.32 563.33C364.06 561.8 353.95 549.56 352.68 548.03C375.35 529.3 368.32 490.72 362.11 469.38C361.17 466.15 360.18 462.88 359.19 459.59C350.68 431.3 341.03 399.24 353.53 369.78C372.37 325.38 426.66 316.08 470.29 308.61C472.03 308.31 478.11 307.26 478.98 307.11Z" id="c8cwUQjg4J"></path><path d="M69.55 569.09C43.28 569.09 21.98 547.79 21.98 521.53C21.98 503.9 21.98 362.92 21.98 345.3C21.98 340.12 24.11 335.18 27.86 331.62C48.25 312.3 211.31 157.73 231.69 138.41C248.62 122.37 275.13 122.37 292.05 138.41C311.49 156.83 466.96 304.21 486.39 322.63C496.21 331.93 501.76 344.85 501.76 358.37C501.76 374.69 501.76 505.21 501.76 521.53C501.76 547.79 480.47 569.09 454.2 569.09C454.2 569.09 454.2 569.09 454.2 569.09C454.2 569.09 108.01 569.09 69.55 569.09Z" id="a1cyuBlgq"></path><path d="M497.76 348.19C497.76 463.5 497.76 527.56 497.76 540.37C497.76 556.23 484.91 569.09 469.05 569.09C427.21 569.09 92.54 569.09 50.7 569.09C34.84 569.09 21.98 556.23 21.98 540.37C21.98 527.56 21.98 463.5 21.98 348.19L497.76 348.19Z" id="b1iSVnwt9R"></path><path d="" id="aSHYzBCKj"></path><path d="M412.12 196.76C429.57 196.76 438.29 205.48 438.29 222.93C438.29 403.83 438.29 504.33 438.29 524.43C438.29 541.87 429.57 550.6 412.12 550.6C231.22 550.6 130.72 550.6 110.62 550.6C93.18 550.6 84.46 541.87 84.46 524.43C84.46 343.53 84.46 243.03 84.46 222.93C84.46 205.48 93.18 196.76 110.62 196.76C291.52 196.76 392.02 196.76 412.12 196.76Z" id="bcFYvZAWl"></path><path d="M438.29 550.6L84.46 550.6L84.46 356.14L261.37 441.65L438.29 356.14L438.29 356.14L438.29 550.6Z" id="dbOE4GRvo"></path><path d="M261.37 452.64C125.36 386.9 49.8 350.38 34.68 343.08C30.11 340.86 24.61 342.78 22.4 347.35C21.8 348.6 21.48 349.97 21.48 351.36C21.48 370.21 21.48 521.02 21.48 539.87C21.48 555.73 34.34 568.59 50.2 568.59C50.2 568.59 50.2 568.59 50.2 568.59C92.44 568.59 430.31 568.59 472.54 568.59C488.41 568.59 501.26 555.73 501.26 539.87C501.26 539.87 501.26 539.87 501.26 539.87C501.26 521.34 501.26 373.11 501.26 354.59C501.26 348.39 496.24 343.36 490.04 343.36C488.35 343.36 486.68 343.74 485.16 344.48C455.32 358.9 380.72 394.96 261.37 452.64Z" id="a9U2euSIA"></path><path d="M213.9 229.24C213.9 229.24 213.9 229.24 213.9 229.24C213.9 237.64 213.9 242.31 213.9 243.24C213.9 243.24 213.9 243.24 213.9 243.24C154.52 243.24 121.54 243.24 114.94 243.24C114.94 243.24 114.94 243.24 114.94 243.24C114.94 234.84 114.94 230.18 114.94 229.24C114.94 229.24 114.94 229.24 114.94 229.24C174.31 229.24 207.3 229.24 213.9 229.24Z" id="f3cKvP2wb"></path><path d="M400.81 280.22C400.81 280.22 400.81 280.22 400.81 280.22C400.81 285.02 400.81 287.68 400.81 288.22C400.81 288.22 400.81 288.22 400.81 288.22C224.49 288.22 126.54 288.22 106.94 288.22C106.94 288.22 106.94 288.22 106.94 288.22C106.94 283.42 106.94 280.75 106.94 280.22C106.94 280.22 106.94 280.22 106.94 280.22C283.26 280.22 381.22 280.22 400.81 280.22Z" id="d48bHFZqNZ"></path><path d="M400.81 307.21C400.81 307.21 400.81 307.21 400.81 307.21C400.81 312.01 400.81 314.67 400.81 315.21C400.81 315.21 400.81 315.21 400.81 315.21C224.49 315.21 126.54 315.21 106.94 315.21C106.94 315.21 106.94 315.21 106.94 315.21C106.94 310.41 106.94 307.74 106.94 307.21C106.94 307.21 106.94 307.21 106.94 307.21C283.26 307.21 381.22 307.21 400.81 307.21Z" id="d1eA0g1aHb"></path><path d="M400.81 334.2C400.81 334.2 400.81 334.2 400.81 334.2C400.81 338.99 400.81 341.66 400.81 342.19C400.81 342.19 400.81 342.19 400.81 342.19C224.49 342.19 126.54 342.19 106.94 342.19C106.94 342.19 106.94 342.19 106.94 342.19C106.94 337.4 106.94 334.73 106.94 334.2C106.94 334.2 106.94 334.2 106.94 334.2C283.26 334.2 381.22 334.2 400.81 334.2Z" id="eLitw0e25"></path><path d="M-157.93 568.59L665.69 568.59" id="a2qXEbQlTm"></path><path d="M-218.86 445.51C-218.86 504.44 -181.89 552.13 -136.2 552.13" id="bbzm94WqS"></path><path d="M-136.2 552.13C-136.2 492.53 -94.94 444.31 -43.95 444.31" id="a18snvkc69"></path><path d="M-188.91 450.85C-188.91 506.83 -165.33 552.13 -136.2 552.13" id="bTjFit5d2"></path><path d="M-136.2 552.13C-136.2 475.98 -88.51 414.36 -29.58 414.36" id="b3STIvB6C"></path><path d="M-138.33 550C-138.33 550 -120.3 544.48 -119.42 548.52C-119.42 548.52 -101.81 568.58 -115.04 568.69C-115.04 568.69 -145.79 566.63 -149.32 564.48C-152.84 562.33 -153.59 552.88 -153.59 552.88C-150.54 552.3 -141.86 552.52 -138.33 550Z" id="c3JAk696z"></path><path d="M-149.08 563.08C-151.77 561.44 -152.84 555.57 -153.2 552.86C-153.44 552.87 -153.59 552.88 -153.59 552.88C-153.59 552.88 -152.84 562.33 -149.32 564.48C-145.79 566.63 -128.28 568.8 -115.04 568.69C-111.22 568.66 -109.9 567.3 -109.97 565.29C-110.5 566.5 -111.96 567.26 -114.8 567.29C-128.04 567.39 -145.56 565.23 -149.08 563.08Z" id="b4wxhAwrW"></path><path d="M494.33 137.91C492.05 145.69 495.99 154.03 501.37 160.09C510.15 169.86 522.47 175.71 535.59 176.34C537.5 176.51 539.42 176.3 541.25 175.72C542.88 175.07 544.35 174.06 545.55 172.78C549.61 168.71 551.78 163.07 552.65 157.39C553.52 151.71 553.18 145.92 552.84 140.18C552.84 138.99 552.63 137.82 552.21 136.71C551.65 135.65 550.89 134.72 549.97 133.96C547.05 131.29 543.84 128.95 540.39 127C538.83 126.3 537.45 125.25 536.37 123.93C535.72 122.79 535.3 121.54 535.13 120.25C535.02 119.71 534.18 115.39 534.07 114.85C533.88 113.3 533.35 111.8 532.52 110.48C530.64 107.95 527.07 107.61 523.93 107.49C522.78 107.44 513.58 107.08 512.43 107.04C508.85 106.9 504.14 105.87 500.64 106.57C497.38 107.23 498.47 110.23 499.06 112.97C499.92 116.27 500.41 119.66 500.52 123.07C499.92 128.42 495.84 132.74 494.33 137.91Z" id="a7q4xdqQ9"></path><path d="M494.33 137.91C492.05 145.69 495.99 154.03 501.37 160.09C510.15 169.86 522.47 175.71 535.59 176.34C537.5 176.51 539.42 176.3 541.25 175.72C542.88 175.07 544.35 174.06 545.55 172.78C549.61 168.71 551.78 163.07 552.65 157.39C553.52 151.71 553.18 145.92 552.84 140.18C552.84 138.99 552.63 137.82 552.21 136.71C551.65 135.65 550.89 134.72 549.97 133.96C547.05 131.29 543.84 128.95 540.39 127C538.83 126.3 537.45 125.25 536.37 123.93C535.72 122.79 535.3 121.54 535.13 120.25C535.02 119.71 534.18 115.39 534.07 114.85C533.88 113.3 533.35 111.8 532.52 110.48C530.64 107.95 527.07 107.61 523.93 107.49C522.78 107.44 513.58 107.08 512.43 107.04C508.85 106.9 504.14 105.87 500.64 106.57C497.38 107.23 498.47 110.23 499.06 112.97C499.92 116.27 500.41 119.66 500.52 123.07C499.92 128.42 495.84 132.74 494.33 137.91Z" id="b4mPuI6w7o"></path><path d="M568.79 417.56C567.51 431.61 566.21 445.72 563.71 459.6C562.85 464.38 561.84 469.13 560.63 473.85C557.29 486.94 552.45 499.73 550.88 513.15C550.83 513.54 550.79 513.94 550.75 514.33C550.58 517.3 550.02 520.23 549.08 523.05C548.3 525.1 547.1 526.97 546.25 528.99C544.56 533.04 544.34 537.52 544.14 541.9C538.2 538.57 531.71 536.35 524.97 535.35C521.72 534.87 518.1 534.52 515.89 532.1C513.44 529.41 513.71 525.31 514.12 521.7C516.06 504.92 517.6 491.5 517.99 488.15C518.41 483.34 519.22 478.57 520.43 473.9C520.87 472.34 521.41 470.81 521.95 469.28C522.7 467.17 523.46 465.07 524.03 462.9C524.84 459.41 525.42 455.86 525.74 452.28C527.06 441.02 528.66 429.79 530.06 418.54C530.07 418.48 530.12 418.01 530.13 417.95C532.23 400.9 533.83 383.77 533.37 366.6C533.3 364.05 533.19 361.51 533.03 358.96C532.8 355.27 532.46 353.31 535.52 351C538.9 348.45 543.35 346.66 547.22 344.99C549.3 344.08 572.23 335.95 572.76 337.73C573.84 341.54 574.4 345.48 574.44 349.43C574.46 354.29 574.2 359.14 573.68 363.97C571.23 390.77 569.28 412.2 568.79 417.56Z" id="b1kIyxPTTv"></path><path d="M560.63 473.85C557.29 486.94 552.45 499.73 550.88 513.15C550.83 513.54 550.79 513.94 550.75 514.33C540.53 499.73 531.93 484.03 521.95 469.28C522.7 467.17 523.46 465.07 524.03 462.9C524.84 459.41 525.42 455.86 525.74 452.28C527.06 441.02 528.66 429.79 530.06 418.54C530.07 418.48 530.12 418.01 530.13 417.95C530.72 420.34 531.55 422.66 532.62 424.87C539.32 438.48 555.24 445.36 563.02 458.39C563.26 458.79 563.49 459.19 563.71 459.6C562.46 465.95 561.44 470.7 560.63 473.85Z" id="a26tgau1qb"></path><path d="M484.61 372.43C484.97 374.66 487.85 392.45 488.21 394.68C490.18 406.85 492.23 419.27 497.99 430.18C502.3 438.33 508.51 445.29 514.13 452.61C527.94 470.6 538.31 490.98 551.4 509.5C555.21 514.88 560.65 520.7 567.15 519.58C571.41 518.84 574.51 515.29 577.86 512.55C581.81 509.33 586.57 506.97 589.68 502.92C592.79 498.88 593.39 492.16 589.18 489.28C587.66 488.44 586.04 487.77 584.36 487.31C577.83 484.82 573.61 478.45 570.92 472C568.23 465.56 566.6 458.62 563.02 452.63C555.24 439.6 539.32 432.72 532.62 419.11C528.87 411.48 528.51 402.7 528.22 394.2C528.15 392.04 527.57 374.71 527.49 372.55C527.41 370.18 527.35 367.72 528.31 365.55C530.88 359.79 538.61 359.25 544.88 358.52C551.99 357.69 558.88 355.52 565.18 352.12C568.79 350.17 572.31 347.69 574.24 344.07C576 340.77 576.25 336.89 576.45 333.16C576.67 329.23 578.41 297.84 578.62 293.92C578.81 290.54 578.98 287.05 577.79 283.89C574.8 275.94 564.77 273.34 556.29 273.72C540.5 274.43 525.93 281.22 511.05 285.8C507.37 286.97 503.63 287.94 499.84 288.73C496.5 289.4 492.46 289.12 489.27 290.19C483.61 292.1 483.75 304.49 482.95 309.63C481.29 319.64 480.57 329.78 480.79 339.92C481.12 350.84 482.87 361.65 484.61 372.43Z" id="a4BHr6eqCf"></path><path d="M567.21 526.63C569.22 537.4 570.27 548.34 570.34 559.3C570.24 560.33 570.45 561.35 570.93 562.26C571.32 562.81 571.85 563.23 572.46 563.5C576.48 565.42 581.15 562.74 584.51 559.81C590.72 554.37 595.98 547.06 596.33 538.81C596.26 536.68 596.34 534.55 596.55 532.44C597.1 529.33 598.91 526.62 600.51 523.9C603.23 519.28 605.43 514.36 607.05 509.24C607.66 507.32 608.07 504.9 606.56 503.55C606.03 503.14 605.42 502.82 604.77 502.62C602.96 501.95 588.42 496.55 586.6 495.88C585.03 495.29 581.11 505.36 580.49 506.46C578.97 509.15 577.45 510.68 574.4 511.3C571.29 511.93 567.58 511.02 564.67 512.58C559.76 515.21 562.22 518.42 565 521.22C566.4 522.63 566.85 524.68 567.21 526.63Z" id="g5ltzxHuqP"></path><path d="M535.58 525.68C534.74 525.15 533.79 524.82 532.79 524.73C529.33 524.15 525.23 523.76 522.85 526.33C520.61 528.74 520.99 532.67 519.12 535.37C518.53 536.23 517.73 536.94 517.21 537.84C516.58 539.23 516.29 540.75 516.38 542.27C516.28 546.46 516.18 550.66 516.47 554.85C516.72 558.35 517.31 562.03 519.5 564.77C523.02 569.18 529.37 569.82 535 570.1C535.46 570.13 539.11 570.31 539.56 570.33C540.82 570.49 542.09 570.37 543.3 569.99C544.81 569.29 545.98 568.01 546.53 566.44C548.9 560.54 545.14 554.18 542.83 548.25C540.16 541.44 540.64 533.88 536.97 527.43C536.63 526.76 536.16 526.17 535.58 525.68Z" id="c6bPUzalJ"></path><path d="M499.46 91.16C500.13 89.98 501.87 90.3 503.19 90.63C508.48 91.96 514.06 90.76 519.51 91.07C524.96 91.38 531.1 94.1 532.2 99.45C536.15 96.65 539.57 93.14 542.26 89.11C543.77 86.85 545.09 84.26 544.89 81.54C544.59 77.62 541.3 74.69 538.26 72.21C537.36 71.47 530.1 65.55 529.19 64.81C528 63.71 526.63 62.84 525.13 62.23C523.04 61.51 520.75 61.85 518.54 61.85C511.94 61.86 504.9 58.85 499.03 61.87C496.58 63.13 494.73 65.29 492.95 67.4C492.14 68.36 485.67 76.02 484.86 76.98C484.25 77.59 483.8 78.35 483.56 79.17C483.33 80.34 483.93 81.5 484.14 82.67C484.53 84.81 483.6 87.1 484.31 89.15C485.49 92.56 489.63 93.05 492.17 95C493.11 95.73 494.59 98.2 495.71 98.17C497.74 98.12 499.15 94.49 499.2 92.92C499.14 92.32 499.23 91.71 499.46 91.16Z" id="bxkoHH6g7"></path><path d="M512.93 69.32C498.62 69.32 487.01 80.92 487.01 95.24C487.01 109.55 498.62 121.16 512.93 121.16C527.25 121.16 538.85 109.55 538.85 95.24C538.85 80.92 527.25 69.32 512.93 69.32Z" id="e3Al9f2bKV"></path><path d="M506.78 143.55C506.02 143.7 505.23 143.6 504.53 143.27C504.13 142.96 503.81 142.57 503.6 142.11C502.02 139.28 500.76 136.28 499.82 133.18C499.41 131.8 498.84 130.19 497.45 129.83C496.28 129.68 495.12 130.18 494.44 131.14C493.78 132.09 493.06 133 492.28 133.85C489.02 136.77 483.24 134.11 479.78 136.78C479.22 137.22 478.75 137.78 478.16 138.18C477.56 138.54 476.92 138.81 476.25 138.99C469.57 141.18 463.02 143.74 456.64 146.68C458.94 160.54 461.3 174.64 466.69 187.61C469.26 193.79 472.17 199.83 474.22 206.2C478.78 220.29 478.98 235.38 479.03 250.19C479.07 260.33 479.02 270.69 475.74 280.28C474.85 282.4 474.23 284.62 473.88 286.89C473.69 289.18 474.35 291.7 476.2 293.05C477.28 293.75 478.51 294.19 479.78 294.31C485.47 295.14 491.2 293.63 496.79 292.33C511.8 288.86 527.1 286.87 542.37 284.89C544.92 284.56 565.39 281.9 567.95 281.57C569.79 281.44 571.58 280.98 573.25 280.2C577.93 277.63 578.37 270.59 575.47 266.11C574.07 263.97 572.11 262.21 570.93 259.93C569.76 257.66 569.66 254.47 571.68 252.9C575.78 249.69 574.56 243.75 574.75 238.54C575.57 216.72 574.55 199.25 574.53 194.89C574.33 191.88 574.28 188.85 574.39 185.83C574.84 180.72 575.79 175.66 577.21 170.73C577.99 167.67 584.21 143.17 584.98 140.11C582.95 136.9 579.06 134.87 575.38 133.94C571.7 133.02 567.86 132.75 564.23 131.62C556.8 129.32 550.18 123.47 542.42 124.02C541.83 124.03 541.25 124.17 540.73 124.43C538.98 125.42 539.25 127.95 539.14 129.95C538.89 134.4 535.63 138.11 532.02 140.72C528.4 143.32 524.28 145.22 520.97 148.19C519.78 149.09 519.06 150.48 519.01 151.97C517.2 146.8 512.25 143.39 506.78 143.55Z" id="f5B84nSRjb"></path><path d="M410.85 183.81C408.98 184.36 407.22 185.22 405.63 186.34C404.9 186.98 404.28 187.74 403.81 188.59C401.11 193.39 402.8 199.47 407.6 202.18C409.25 203.11 411.13 203.55 413.01 203.45C415.38 203.19 417.69 202.5 419.82 201.43C421.65 200.63 436.27 194.3 438.1 193.5C441.19 192.16 444.54 190.59 446 187.55C446.17 187.27 446.23 186.93 446.18 186.61C446.03 186.26 445.76 185.98 445.43 185.82C441.3 183.14 437.7 179.74 434.78 175.78C434.03 174.76 433.11 172.36 432.05 171.75C428.18 169.52 419.4 178.99 416.3 181C414.58 182.12 412.76 183.06 410.85 183.81Z" id="a4kasDl0Cd"></path><path d="M618.48 182.2C619.93 183.86 621.38 185.51 622.69 187.27C625.93 191.73 628.53 196.63 630.41 201.81C631.88 205.65 633.1 209.75 632.58 213.83C632.24 215.92 631.68 217.97 630.9 219.94C629.66 223.74 628.13 227.42 626.32 230.98C624.79 233.67 623.07 236.25 621.16 238.7C615.95 245.62 610.24 252.15 604.08 258.24C601.77 260.52 600.81 264.21 599.8 267.29C597.95 272.98 593.55 277.41 589.3 281.61C587.93 283.06 586.41 284.36 584.78 285.49C582.34 287.07 579.48 287.88 576.57 287.83C575.3 287.84 574.04 287.58 572.87 287.07C569.96 285.68 568.48 282.32 568.17 279.1C567.9 276.19 568.39 273.26 569.59 270.59C573.46 262.02 583.39 258.31 590.41 252.06C594.53 248.39 597.68 243.79 600.78 239.23C602.89 236.39 604.65 233.3 606.02 230.04C607.59 225.86 606.98 220.9 608.35 216.65C608.93 214.85 609.96 213.23 610.58 211.45C611.21 209.66 611.36 207.55 610.27 206.01C609.45 205.03 608.4 204.26 607.22 203.77C602.74 201.5 597.71 198.57 596.86 193.61C596.51 190.86 597.23 188.09 598.86 185.85C600.49 183.64 602.39 181.65 604.52 179.92C606.48 178.19 609.78 176.24 611.74 174.5C613.09 176.04 617.81 181.43 618.48 182.2Z" id="aKe04QtyY"></path><path d="M406.9 185.7C404.54 184.68 401.87 184.67 399.51 185.67C397.18 186.67 395 187.99 393.03 189.59C392.45 190.01 387.8 193.44 387.22 193.87C385.91 194.73 384.74 195.81 383.77 197.05C382.86 198.56 382.25 200.24 381.98 201.98C380.97 205.96 380.66 210.09 381.07 214.17C381.99 220.72 385.94 226.44 390.28 231.43C393 234.55 396.35 237.69 400.49 237.82C402.27 237.88 404.25 237.18 405 235.55C405.25 234.91 405.39 234.23 405.4 233.53C405.85 226.23 403.23 219.09 400.18 212.43C399.21 210.69 398.64 208.75 398.5 206.76C398.48 206.43 398.57 206.09 398.75 205.81C399.01 205.54 399.36 205.37 399.74 205.33C403.91 204.5 411.1 207.74 414.03 203.11C415.92 200.11 413.32 194.47 411.98 191.75C410.79 189.35 409.3 186.89 406.9 185.7Z" id="bwzBduJlA"></path><path d="M498.1 83C498.77 81.82 500.51 82.14 501.83 82.47C507.12 83.81 512.7 82.6 518.15 82.91C523.6 83.22 529.74 85.95 530.84 91.3C534.8 88.49 538.21 84.99 540.9 80.96C542.42 78.69 543.73 76.1 543.53 73.38C543.23 69.47 539.95 66.54 536.9 64.06C536 63.32 528.74 57.39 527.83 56.65C526.64 55.56 525.27 54.68 523.77 54.07C521.68 53.35 519.4 53.7 517.18 53.7C510.58 53.7 503.54 50.7 497.67 53.71C495.22 54.98 493.37 57.14 491.59 59.24C490.78 60.2 484.31 67.87 483.5 68.82C482.89 69.43 482.44 70.19 482.2 71.02C481.97 72.19 482.57 73.34 482.78 74.52C483.17 76.66 482.24 78.94 482.95 81C484.13 84.41 488.27 84.89 490.81 86.85C491.75 87.58 493.23 90.05 494.36 90.02C496.38 89.96 497.79 86.34 497.84 84.76C497.79 84.16 497.87 83.56 498.1 83Z" id="asBCHTwzK"></path><path d="M440.08 158.32C439.13 159.75 438.93 161.57 438.12 163.09C436.37 166.33 432.28 167.49 429.74 170.15C429.33 170.52 429.05 171 428.93 171.53C428.92 172.25 429.16 172.96 429.62 173.52C430.84 175.45 440.68 190.91 441.91 192.84C446 193.2 449.92 190.64 454.02 190.98C455.55 191.11 457.11 191.63 458.58 191.18C459.63 190.72 460.61 190.12 461.5 189.39C463.95 187.85 467.2 187.67 469.25 185.63C471.21 183.68 471.46 180.62 471.44 177.84C471.47 175.43 471.23 173.03 470.71 170.68C468.9 163.26 463.23 157.57 459.67 151C457.94 147.8 457 145.93 453.34 148.13C449.65 150.33 446.26 153.26 442.79 155.79C441.74 156.47 440.82 157.32 440.08 158.32Z" id="glqtlmpTu"></path><path d="M598.25 151.44C600.12 153.85 601.18 156.81 602.98 159.28C604.72 161.67 607.09 163.52 609.07 165.73C612.07 169.07 614.1 173.15 616.1 177.17C611.22 183.53 605.91 189.53 600.2 195.14C599.56 195.89 598.72 196.44 597.78 196.73C596.48 196.87 595.2 196.34 594.37 195.34C593.49 194.41 592.86 193.26 592.01 192.3C590.01 190.24 587.35 188.95 584.5 188.67C581.67 188.39 578.82 188.35 575.98 188.55C575.36 188.62 574.73 188.51 574.17 188.24C573.74 187.95 573.4 187.56 573.17 187.11C569.85 181.44 570.92 174.33 572.09 167.87C572.36 166.39 574.51 154.52 574.78 153.04C575.17 150.21 575.93 147.44 577.03 144.8C578.05 142.62 580.33 138.92 583.13 139.57C585.96 140.23 589.68 144.31 592.06 146.02C594.37 147.52 596.45 149.34 598.25 151.44Z" id="b19QNTXX6M"></path><path d="M139.93 202.33C139.93 225.01 121.58 243.39 98.95 243.39C76.32 243.39 57.97 225.01 57.97 202.33C57.97 179.66 76.32 161.28 98.95 161.28C121.58 161.28 139.93 179.66 139.93 202.33Z" id="d2n00p5ja8"></path><path d="M49.97 203.26C49.97 230.31 71.9 252.23 98.95 252.23C126 252.23 147.93 230.31 147.93 203.26C147.85 176.24 125.97 154.36 98.95 154.28C71.9 154.28 49.97 176.21 49.97 203.26ZM63.79 204.27L70.83 197.23L88.92 215.31L127.09 177.14L134.13 184.18L88.89 229.37L63.79 204.27Z" id="b1rlbte0lP"></path></defs><g><g><g><use xlink:href="#c8cwUQjg4J" opacity="1" fill="#f2f2f2" fill-opacity="1"></use><g><use xlink:href="#c8cwUQjg4J" opacity="1" fill-opacity="0" stroke="#000000" stroke-width="1" stroke-opacity="0"></use></g></g><g><use xlink:href="#a1cyuBlgq" opacity="1" fill="#3f3d56" fill-opacity="1"></use><g><use xlink:href="#a1cyuBlgq" opacity="1" fill-opacity="0" stroke="#000000" stroke-width="1" stroke-opacity="0"></use></g></g><g><use xlink:href="#b1iSVnwt9R" opacity="1" fill="#000000" fill-opacity="1"></use><g><use xlink:href="#b1iSVnwt9R" opacity="1" fill-opacity="0" stroke="#000000" stroke-width="1" stroke-opacity="0"></use></g></g><g><use xlink:href="#aSHYzBCKj" opacity="1" fill="#000000" fill-opacity="0"></use><g><use xlink:href="#aSHYzBCKj" opacity="1" fill-opacity="0" stroke="#3f3d56" stroke-width="1" stroke-opacity="1"></use></g></g><g><use xlink:href="#bcFYvZAWl" opacity="1" fill="#f64152" fill-opacity="1"></use><g><use xlink:href="#bcFYvZAWl" opacity="1" fill-opacity="0" stroke="#000000" stroke-width="1" stroke-opacity="0"></use></g></g><g><use xlink:href="#dbOE4GRvo" opacity="1" fill="#000000" fill-opacity="1"></use><g><use xlink:href="#dbOE4GRvo" opacity="1" fill-opacity="0" stroke="#000000" stroke-width="1" stroke-opacity="0"></use></g></g><g><use xlink:href="#a9U2euSIA" opacity="1" fill="#3f3d56" fill-opacity="1"></use><g><use xlink:href="#a9U2euSIA" opacity="1" fill-opacity="0" stroke="#000000" stroke-width="1" stroke-opacity="0"></use></g></g><g><use xlink:href="#f3cKvP2wb" opacity="1" fill="#f2f2f2" fill-opacity="1"></use><g><use xlink:href="#f3cKvP2wb" opacity="1" fill-opacity="0" stroke="#000000" stroke-width="1" stroke-opacity="0"></use></g></g><g><use xlink:href="#d48bHFZqNZ" opacity="1" fill="#f2f2f2" fill-opacity="1"></use><g><use xlink:href="#d48bHFZqNZ" opacity="1" fill-opacity="0" stroke="#000000" stroke-width="1" stroke-opacity="0"></use></g></g><g><use xlink:href="#d1eA0g1aHb" opacity="1" fill="#f2f2f2" fill-opacity="1"></use><g><use xlink:href="#d1eA0g1aHb" opacity="1" fill-opacity="0" stroke="#000000" stroke-width="1" stroke-opacity="0"></use></g></g><g><use xlink:href="#eLitw0e25" opacity="1" fill="#f2f2f2" fill-opacity="1"></use><g><use xlink:href="#eLitw0e25" opacity="1" fill-opacity="0" stroke="#000000" stroke-width="1" stroke-opacity="0"></use></g></g><g><use xlink:href="#a2qXEbQlTm" opacity="1" fill="#000000" fill-opacity="0"></use><g><use xlink:href="#a2qXEbQlTm" opacity="1" fill-opacity="0" stroke="#3f3d56" stroke-width="1" stroke-opacity="1"></use></g></g><g><use xlink:href="#bbzm94WqS" opacity="1" fill="#46455b" fill-opacity="1"></use><g><use xlink:href="#bbzm94WqS" opacity="1" fill-opacity="0" stroke="#000000" stroke-width="1" stroke-opacity="0"></use></g></g><g><use xlink:href="#a18snvkc69" opacity="1" fill="#6c63ff" fill-opacity="1"></use><g><use xlink:href="#a18snvkc69" opacity="1" fill-opacity="0" stroke="#000000" stroke-width="1" stroke-opacity="0"></use></g></g><g><use xlink:href="#bTjFit5d2" opacity="1" fill="#6c63ff" fill-opacity="1"></use><g><use xlink:href="#bTjFit5d2" opacity="1" fill-opacity="0" stroke="#000000" stroke-width="1" stroke-opacity="0"></use></g></g><g><use xlink:href="#b3STIvB6C" opacity="1" fill="#46455b" fill-opacity="1"></use><g><use xlink:href="#b3STIvB6C" opacity="1" fill-opacity="0" stroke="#000000" stroke-width="1" stroke-opacity="0"></use></g></g><g><use xlink:href="#c3JAk696z" opacity="1" fill="#a8a8a8" fill-opacity="1"></use><g><use xlink:href="#c3JAk696z" opacity="1" fill-opacity="0" stroke="#000000" stroke-width="1" stroke-opacity="0"></use></g></g><g><use xlink:href="#b4wxhAwrW" opacity="1" fill="#000000" fill-opacity="1"></use><g><use xlink:href="#b4wxhAwrW" opacity="1" fill-opacity="0" stroke="#000000" stroke-width="1" stroke-opacity="0"></use></g></g><g><use xlink:href="#a7q4xdqQ9" opacity="1" fill="#a0616a" fill-opacity="1"></use><g><use xlink:href="#a7q4xdqQ9" opacity="1" fill-opacity="0" stroke="#000000" stroke-width="1" stroke-opacity="0"></use></g></g><g><use xlink:href="#b4mPuI6w7o" opacity="1" fill="#000000" fill-opacity="1"></use><g><use xlink:href="#b4mPuI6w7o" opacity="1" fill-opacity="0" stroke="#000000" stroke-width="1" stroke-opacity="0"></use></g></g><g><use xlink:href="#b1kIyxPTTv" opacity="1" fill="#605d82" fill-opacity="1"></use><g><use xlink:href="#b1kIyxPTTv" opacity="1" fill-opacity="0" stroke="#000000" stroke-width="1" stroke-opacity="0"></use></g></g><g><use xlink:href="#a26tgau1qb" opacity="1" fill="#000000" fill-opacity="1"></use><g><use xlink:href="#a26tgau1qb" opacity="1" fill-opacity="0" stroke="#000000" stroke-width="1" stroke-opacity="0"></use></g></g><g><use xlink:href="#a4BHr6eqCf" opacity="1" fill="#605d82" fill-opacity="1"></use><g><use xlink:href="#a4BHr6eqCf" opacity="1" fill-opacity="0" stroke="#000000" stroke-width="1" stroke-opacity="0"></use></g></g><g><use xlink:href="#g5ltzxHuqP" opacity="1" fill="#535070" fill-opacity="1"></use><g><use xlink:href="#g5ltzxHuqP" opacity="1" fill-opacity="0" stroke="#000000" stroke-width="1" stroke-opacity="0"></use></g></g><g><use xlink:href="#c6bPUzalJ" opacity="1" fill="#535070" fill-opacity="1"></use><g><use xlink:href="#c6bPUzalJ" opacity="1" fill-opacity="0" stroke="#000000" stroke-width="1" stroke-opacity="0"></use></g></g><g><use xlink:href="#bxkoHH6g7" opacity="1" fill="#3f3d56" fill-opacity="1"></use><g><use xlink:href="#bxkoHH6g7" opacity="1" fill-opacity="0" stroke="#000000" stroke-width="1" stroke-opacity="0"></use></g></g><g><use xlink:href="#e3Al9f2bKV" opacity="1" fill="#a0616a" fill-opacity="1"></use><g><use xlink:href="#e3Al9f2bKV" opacity="1" fill-opacity="0" stroke="#000000" stroke-width="1" stroke-opacity="0"></use></g></g><g><use xlink:href="#f5B84nSRjb" opacity="1" fill="#f64152" fill-opacity="1"></use><g><use xlink:href="#f5B84nSRjb" opacity="1" fill-opacity="0" stroke="#000000" stroke-width="1" stroke-opacity="0"></use></g></g><g><use xlink:href="#a4kasDl0Cd" opacity="1" fill="#a0616a" fill-opacity="1"></use><g><use xlink:href="#a4kasDl0Cd" opacity="1" fill-opacity="0" stroke="#000000" stroke-width="1" stroke-opacity="0"></use></g></g><g><use xlink:href="#aKe04QtyY" opacity="1" fill="#a0616a" fill-opacity="1"></use><g><use xlink:href="#aKe04QtyY" opacity="1" fill-opacity="0" stroke="#000000" stroke-width="1" stroke-opacity="0"></use></g></g><g><use xlink:href="#bwzBduJlA" opacity="1" fill="#a0616a" fill-opacity="1"></use><g><use xlink:href="#bwzBduJlA" opacity="1" fill-opacity="0" stroke="#000000" stroke-width="1" stroke-opacity="0"></use></g></g><g><use xlink:href="#asBCHTwzK" opacity="1" fill="#3f3d56" fill-opacity="1"></use><g><use xlink:href="#asBCHTwzK" opacity="1" fill-opacity="0" stroke="#000000" stroke-width="1" stroke-opacity="0"></use></g></g><g><use xlink:href="#glqtlmpTu" opacity="1" fill="#3f3d56" fill-opacity="1"></use><g><use xlink:href="#glqtlmpTu" opacity="1" fill-opacity="0" stroke="#000000" stroke-width="1" stroke-opacity="0"></use></g></g><g><use xlink:href="#b19QNTXX6M" opacity="1" fill="#3f3d56" fill-opacity="1"></use><g><use xlink:href="#b19QNTXX6M" opacity="1" fill-opacity="0" stroke="#000000" stroke-width="1" stroke-opacity="0"></use></g></g><g><use xlink:href="#d2n00p5ja8" opacity="1" fill="#ffffff" fill-opacity="1"></use><g><use xlink:href="#d2n00p5ja8" opacity="1" fill-opacity="0" stroke="#000000" stroke-width="1" stroke-opacity="0"></use></g></g><g><use xlink:href="#b1rlbte0lP" opacity="1" fill="#57b894" fill-opacity="1"></use><g><use xlink:href="#b1rlbte0lP" opacity="1" fill-opacity="0" stroke="#000000" stroke-width="1" stroke-opacity="0"></use></g></g></g></g></svg>